<svg class="svg-icon" style="width: 1em; height: 1em;vertical-align: middle;fill: currentColor;overflow: hidden;" viewBox="0 0 1024 1024" version="1.1" xmlns="http://www.w3.org/2000/svg"><path d="M443.431833 554.656519l0.511653 0 0 388.507408-0.511653 0 0-388.507408Z"  /><path d="M443.943486 554.656519l0 388.507408-0.511653 0L443.431833 554.656519 443.943486 554.656519M452.129936 546.470069l-8.18645 0-0.511653 0-8.18645 0 0 8.18645 0 388.507408 0 8.18645 8.18645 0 0.511653 0 8.18645 0 0-8.18645L452.129936 554.656519 452.129936 546.470069 452.129936 546.470069z"  /><path d="M443.474812 554.796712 255.231497 271.438109l0.212848-0.141216 0-0.255827 362.888937 0 0 0.255827 0.217964 0.134053L443.904601 554.790572l-0.218988-0.134053L443.474812 554.796712zM255.922229 271.551696l187.756221 282.628986 174.195368-282.627962L255.922229 271.551696 255.922229 271.551696z"  /><path d="M618.332259 271.041066l0 0.255827 0.217964 0.134053L443.904601 554.790572l-0.218988-0.134053-0.210801 0.141216L255.231497 271.438109l0.212848-0.141216 0-0.255827L618.332259 271.041066M255.922229 271.552719 255.922229 271.552719l187.756221 282.627962 174.195368-282.627962L255.922229 271.552719 255.922229 271.552719M626.518708 262.854617l-8.18645 0L255.444345 262.854617l-8.18645 0 0 4.044106-3.38305 2.238994 4.53734 6.830569 188.244338 283.358603 4.541433 6.837732 2.683109-1.792832 2.711761 1.658779 4.281513-6.945179 174.645622-283.358603 4.299933-6.976902-3.301186-2.029216L626.518708 262.854617 626.518708 262.854617zM271.189957 279.739169l332.021929 0L443.420577 538.997887 271.189957 279.739169 271.189957 279.739169z"  /><path d="M647.283638 410.207639 646.896828 409.870971 655.440411 400.113747 663.185816 389.719003 670.08597 378.750183 676.10301 367.271758 681.198052 355.354334 685.338349 343.073636 688.498318 330.506413 690.661587 317.726342 691.812807 304.816311 691.939697 291.858184 691.048397 278.92564 689.140954 266.109754 686.230672 253.480108 682.336992 241.11857 677.48038 229.103932 671.693584 217.504756 665.010371 206.401884 657.476791 195.856713 649.135822 185.936783 640.02942 176.700421 640.393717 176.341241 649.506259 185.585789 649.32411 185.764867 649.520585 185.600115 657.874857 195.535395 657.678382 195.700147 657.886113 195.550745 665.431973 206.112288 665.224242 206.261691 665.443229 206.129684 672.136675 217.249953 671.917688 217.381959 672.146908 217.267349 677.942915 228.884944 677.713694 228.998531 677.951101 228.903364 682.814876 240.935398 682.577468 241.032612 682.822039 240.955864 686.720835 253.336846 686.477288 253.413594 686.725952 253.356288 689.642374 266.004353 689.392688 266.061658 689.645444 266.024819 691.555957 278.861172 691.3032 278.899034 691.558004 278.881638 692.450327 291.833625 692.195523 291.851021 692.45135 291.853068 692.32446 304.830637 692.068633 304.82859 692.323437 304.85008 691.170171 317.783647 690.915367 317.760111 691.167101 317.80309 689.001785 330.60158 688.749028 330.559625 688.997692 330.622046 685.832605 343.207689 685.584965 343.145268 685.827489 343.227132 681.679006 355.528296 681.436482 355.446431 681.670819 355.546715 676.569638 367.482559 676.335301 367.381252 676.561451 367.500978 670.535201 378.9968 670.308027 378.878097 670.524968 379.01522 663.613558 390.000412 663.396617 389.864312 663.601278 390.016785 655.843594 400.427902 655.638933 400.274406 655.832338 400.443251Z"  /><path d="M640.393717 176.341241l9.112542 9.243525-0.183172 0.180102 0.196475-0.164752 8.354272 9.93528-0.196475 0.164752 0.207731-0.149403 7.54586 10.561543-0.207731 0.149403 0.218988-0.132006 6.693446 11.120268-0.218988 0.132006 0.230244-0.11461 5.796006 11.618619-0.230244 0.113587 0.237407-0.096191 4.863774 12.033058-0.237407 0.097214 0.24457-0.076748 3.898797 12.380982-0.242524 0.076748 0.248663-0.057305 2.916423 12.647041-0.249687 0.058328 0.252757-0.036839 1.910513 12.836353-0.252757 0.037862 0.254803-0.01842 0.892323 12.951987-0.254803 0.01842 0.255827 0.002047-0.12689 12.977569-0.255827-0.002047 0.254803 0.021489-1.153266 12.933567-0.254803-0.023536 0.251733 0.042979-2.165316 12.798491-0.252757-0.041956 0.248663 0.063445-3.165086 12.585643-0.24764-0.062422 0.2415 0.081864-4.148483 12.301164-0.242524-0.081864 0.234337 0.101307-5.101181 11.93482-0.234337-0.101307 0.226151 0.119727-6.02625 11.494799-0.228197-0.11768 0.217964 0.137123-6.91141 10.985192-0.217964-0.137123 0.204661 0.152473-7.757684 10.411117-0.204661-0.152473 0.193405 0.167822-8.5487 9.764388-0.38681-0.335644 8.544607-9.757225 7.744381-10.394744 6.900154-10.968819 6.01704-11.478426 5.095042-11.917424 4.140297-12.280698 3.15997-12.567223 2.163269-12.779048 1.151219-12.910031 0.12689-12.958126-0.8913-12.932544-1.907443-12.815887-2.910283-12.629645-3.89368-12.361539-4.856611-12.014638-5.786797-11.599176-6.683213-11.102872-7.532557-10.546194-8.340969-9.918907-9.106402-9.236362L640.393717 176.341241M640.482745 164.770717l-5.828752 5.734608-0.364297 0.35918-5.844102 5.747911 5.755074 5.836939 8.879228 9.006118 7.924483 9.423627 7.158027 10.021238 6.350638 10.550287 5.499248 11.021008 4.614088 11.416004 3.700275 11.746532 2.764973 12.002358 1.812275 12.177344 0.846274 12.288884-0.119727 12.311397-1.093914 12.266371-2.055822 12.143575-3.003404 11.941983-3.934612 11.668761-4.840238 11.323906-5.718235 10.906397-6.556323 10.423397-7.358595 9.875928-8.331759 9.514701-5.415336 6.184863 6.206352 5.389754 0.38681 0.335644 6.15621 5.345752 5.370311-6.133697 3.574409-4.081968 0.496304 0.370437 4.689812-6.294356 3.846608-4.394077 0.137123 0.085958 0.538259-0.857531 0.688685-0.786922-0.124843-0.10847 3.089361-4.909823 3.490497-4.684696 0.137123 0.070608 0.449231-0.857531 0.598634-0.804319-0.127913-0.095167 2.701528-5.152347 3.090385-4.91187 0.150426 0.065492 0.406253-0.951675 0.541329-0.861624-0.137123-0.085958 2.281973-5.338588 2.707668-5.164626 0.150426 0.051165 0.320295-0.949628 0.453325-0.864694-0.137123-0.072655 1.876744-5.566786 2.290159-5.357008 0.155543 0.038886 0.245593-0.980327 0.384763-0.898463-0.143263-0.061398 1.425466-5.665023 1.867534-5.539156 0.152473 0.025583 0.162706-0.961908 0.320295-0.953721-0.150426-0.051165 0.972141-5.746888 1.411139-5.611811 0.165776 0.01535 0.093121-1.044796 0.243547-0.969071-0.153496-0.038886 0.518816-5.816472 0.973164-5.756097 0.161682 0.001023 0.010233-1.013073 0.161682-0.959861-0.152473-0.025583 0.057305-5.837962 0.518816-5.809309 0.153496-0.010233-0.066515-0.969071 0.094144-1.055029-0.167822-0.014326-0.398066-5.779633 0.057305-5.840008 0.158612-0.023536-0.149403-1.001817 0.010233-1.007957-0.159636-0.001023-0.855484-5.747911-0.402159-5.817496 0.154519-0.035816-0.224104-0.973164-0.070608-1.020236-0.161682 0.011256-1.306762-5.671163-0.857531-5.756097 0.149403-0.047072-0.294712-0.938372-0.148379-0.99363-0.157589 0.022513-1.7519-5.563716-1.315972-5.705955 0.149403-0.060375-0.3776-0.935302-0.218988-0.947582-0.150426 0.034792-2.186805-5.411243-1.741667-5.529947 0.145309-0.071631-0.452301-0.906649-0.306992-0.975211-0.154519 0.048095-2.602268-5.214768-2.184759-5.405103 0.138146-0.082888-0.521886-0.86674-0.372483-0.919952-0.146333 0.059352-2.998287-4.980431-2.611477-5.234211 0.125867-0.089028-0.563842-0.788969-0.467651-0.937348-0.149403 0.074701-3.381004-4.732791-2.992147-4.971222 0.125867-0.106424-0.670266-0.798179-0.51677-0.856507-0.1361 0.081864-3.745301-4.455475-3.377934-4.727675 0.116657-0.11461-0.722454-0.732687-0.600681-0.840134-0.13303 0.096191-4.060479-4.118807-5.045923-6.000668-0.476861 0.399089-3.827165-3.882424L640.482745 164.770717 640.482745 164.770717z"  /><path d="M716.032418 447.986057 715.657888 447.639157 727.010447 435.44851 737.603713 422.594761 747.40187 409.132144 756.374218 395.10057 764.48392 380.554272 771.699252 365.547487 778.000771 350.130356 783.359826 334.364277 787.759019 318.30144 791.183002 302.004265 793.616424 285.529035 795.053146 268.936125 795.486004 252.28898 794.917046 235.646951 793.345248 219.068368 790.777773 202.612581 787.222807 186.342012 782.693654 170.316014 777.205663 154.593937 770.78237 139.230018 763.442194 124.280538 755.217882 109.799732 746.133993 95.844905 736.222249 82.459037 725.527676 69.695339 714.078926 57.599859 701.915909 46.211485 702.264856 45.837978 714.435037 57.231469 714.260052 57.418734 714.446293 57.242725 725.904253 69.349461 725.718011 69.52547 725.914486 69.360717 736.619292 82.136695 736.422817 82.301448 736.629525 82.148975 746.549455 95.5461 746.343771 95.698572 746.558665 95.559403 755.650741 109.525486 755.435846 109.666702 755.658927 109.539812 763.891426 124.035968 763.668345 124.161834 763.897565 124.049271 771.244904 139.011031 771.01466 139.123594 771.251044 139.025357 777.680477 154.403602 777.444093 154.502863 777.686616 154.417929 783.179724 170.155355 782.937201 170.240289 783.183817 170.170704 787.717064 186.211029 787.47147 186.280614 787.721157 186.226379 791.279193 202.511273 791.029506 202.565509 791.282263 202.526623 793.851784 218.99776 793.599028 219.036645 793.853831 219.013109 795.428699 235.606019 795.172873 235.630578 795.428699 235.621369 795.997658 252.27977 795.741831 252.287957 795.997658 252.29512 795.564799 268.957615 795.308973 268.950452 795.563776 268.972964 794.123984 285.580201 793.869181 285.558711 794.121937 285.596574 791.687492 302.087153 791.434735 302.049291 791.685445 302.101479 788.259416 318.414003 788.008706 318.361815 788.255323 318.429353 783.851013 334.506517 783.604396 334.440002 783.845896 334.521866 778.482749 350.302271 778.241248 350.219383 778.477632 350.316597 772.169973 365.748055 771.933589 365.650841 772.163833 365.762381 764.942361 380.783493 764.711094 380.672976 764.935198 380.796796 756.818333 395.356396 756.594229 395.232576 756.810147 395.369699 747.829612 409.414577 747.613694 409.276431 747.820402 409.426857 738.012012 422.902776 737.805304 422.75235 738.002802 422.915056 727.40135 435.780061 727.203852 435.617355 727.390094 435.790294Z"  /><path d="M702.264856 45.837978l12.170181 11.393491-0.174985 0.187265 0.187265-0.176009 11.456936 12.106736-0.186242 0.176009 0.196475-0.164752 10.704806 12.775978-0.196475 0.164752 0.206708-0.152473 9.91993 13.398148-0.205685 0.151449 0.214894-0.13917 9.092076 13.966083-0.214894 0.141216 0.223081-0.12689 8.232498 14.496156-0.223081 0.125867 0.230244-0.112564 7.347339 14.96176-0.231267 0.112564 0.236384-0.099261 6.429433 15.378246-0.236384 0.099261 0.242524-0.084934 5.493108 15.737426-0.242524 0.084934 0.246617-0.068562 4.533246 16.040325-0.245593 0.069585 0.249687-0.055259 3.559059 16.284895-0.249687 0.055259 0.252757-0.038886 2.569522 16.471137-0.252757 0.038886 0.254803-0.023536 1.574868 16.59291-0.255827 0.024559 0.255827-0.00921 0.568958 16.658402-0.255827 0.008186 0.255827 0.007163-0.432859 16.662495-0.255827-0.007163 0.254803 0.021489-1.439792 16.607236-0.254803-0.021489 0.252757 0.037862-2.434445 16.490579-0.252757-0.037862 0.25071 0.052189-3.426029 16.312524-0.25071-0.053212 0.246617 0.067538-4.405333 16.077164-0.245593-0.066515 0.240477 0.081864-5.362124 15.781428-0.2415-0.082888 0.23536 0.097214-6.306636 15.431457-0.236384-0.098237 0.230244 0.11154-7.221472 15.021112-0.231267-0.109494 0.224104 0.12382-8.117888 14.559601-0.224104-0.12382 0.215918 0.137123-8.979512 14.045901-0.215918-0.138146 0.205685 0.149403-9.80839 13.475919-0.205685-0.149403 0.196475 0.162706-10.600429 12.863982-0.197498-0.162706 0.186242 0.173962-11.357675 12.195763-0.37453-0.347924 11.352559-12.190647 10.594289-12.853749 9.798157-13.462616 8.972349-14.031575 8.109702-14.546298 7.215332-15.006785 6.30152-15.417131 5.359055-15.765055 4.399193-16.062837 3.423983-16.297175 2.433422-16.476253 1.436722-16.59291 0.432859-16.647145-0.568958-16.643052-1.571798-16.57756-2.567475-16.455787-3.554966-16.270569-4.530177-16.025998-5.486968-15.722076-6.423293-15.363919-7.340175-14.948457-8.224312-14.480806-9.083889-13.954827-9.912767-13.385868-10.69355-12.764722-11.44875-12.094456-12.163017-11.388375L702.264856 45.837978M701.873953 34.258245l-5.594415 5.993504-0.348947 0.373507-5.577019 5.975085 5.966898 5.586229 11.982916 11.219529 11.107989 11.735275 10.377348 12.386098 9.618055 12.988826 8.813736 13.539364 7.980765 14.052041 7.123234 14.506389 6.232958 14.906501 5.324262 15.256472 4.396123 15.551184 3.448542 15.787568 2.491751 15.96767 1.524726 16.086373 0.551562 16.149818-0.419556 16.152888-1.393743 16.099676-2.361791 15.987113-3.321652 15.815197-4.269233 15.584953-5.200442 15.298428-6.115278 14.960737-7.001461 14.561647-7.868201 14.114462L740.638839 404.51294l-9.509585 13.065574-10.279111 12.472056-11.183713 12.009522-5.589298 6.001691 6.011924 5.578042 0.37453 0.347924 5.990434 5.558599 5.568832-5.980201 6.119371-6.571672 0.372483 0.306992 5.058203-6.138814 5.373381-5.7694-0.349971-0.326435 0.829901-1.00591 0.384763 0.280386 4.66116-6.402827 5.043876-6.120394-0.367367-0.303922 0.765433-1.050935 0.405229 0.257873 4.284583-6.700609 4.65195-6.391571-0.385786-0.280386 0.705058-1.105171 0.417509 0.231267 3.853771-6.910387 4.285606-6.704702-0.405229-0.25685 0.626263-1.12359 0.431835 0.205685 3.422959-7.119141 3.875261-6.950296-0.421602-0.234337 0.533143-1.108241 0.444115 0.183172 3.018753-7.386224 3.412726-7.099698-0.426719-0.207731 0.493234-1.207501 0.455371 0.156566 2.563382-7.543813 2.990101-7.314593-0.442068-0.182149 0.420579-1.240247 0.460488 0.125867 2.094708-7.644097 2.549056-7.501858-0.451278-0.153496 0.338714-1.237177 0.470721 0.099261 1.633197-7.777127 2.091638-7.632841-0.461511-0.12689 0.261966-1.248434 0.475837 0.071631 1.160429-7.861038 1.636267-7.791453-0.471744-0.097214 0.186242-1.254573 0.474814 0.040932 0.685615-7.900947 1.155313-7.826246-0.470721-0.070608 0.11154-1.288343 0.480954 0.013303 0.206708-7.944949 0.684592-7.898901-0.478907-0.041956 0.032746-1.25969 0.478907-0.014326-0.272199-7.953136 0.205685-7.91732-0.476861-0.013303-0.045025-1.315972 0.477884-0.047072-0.748037-7.890714-0.270153-7.915273-0.479931 0.016373-0.119727-1.257643 0.472767-0.072655-1.223874-7.849782-0.74906-7.891737-0.474814 0.044002-0.201591-1.290389 0.467651-0.103354-1.689479-7.736195-1.219781-7.823176-0.473791 0.073678-0.280386-1.284249 0.459464-0.130983-2.152013-7.613398-1.696642-7.764847-0.468674 0.103354-0.347924-1.231037 0.453325-0.158612-2.618641-7.499811-2.145873-7.591909-0.459464 0.127913-0.430812-1.233084 0.441045-0.184195-3.056616-7.311523-2.619664-7.503904-0.451278 0.158612-0.490164-1.172709 0.432859-0.211824-3.5038-7.133468-3.056616-7.312546-0.443092 0.185218-0.557702-1.136893 0.415462-0.234337-3.926426-6.912433-3.497661-7.123234-0.427742 0.209778-0.648776-1.140986 0.401136-0.26299-4.315282-6.628978-3.917216-6.898107-0.418532 0.237407-0.688685-1.059122 0.385786-0.284479-4.727675-6.384407-4.313236-6.625908-0.401136 0.258896-0.778736-1.050935 0.36532-0.305969-5.092995-6.076392-4.719488-6.375198-0.38374 0.283456-0.828878-0.988514 0.348947-0.329505-5.441942-5.750981-5.102205-6.089695-0.36839 0.309038-0.88823-0.939395 0.326435-0.349971-5.77861-5.41022-5.442966-5.752004-0.348947 0.328481-6.571672-6.152117L701.873953 34.258245 701.873953 34.258245z"  /></svg>