<svg class="svg-icon" style="width: 1em; height: 1em;vertical-align: middle;fill: currentColor;overflow: hidden;" viewBox="0 0 1024 1024" version="1.1" xmlns="http://www.w3.org/2000/svg"><path d="M883.87048 973.808l-49.4-98.8a101.84 101.84 0 0 0-91.592-56.6h-16.248L584.11048 242.512a102.08 102.08 0 0 0 30.296-72.64c0-56.456-45.936-102.4-102.4-102.4-56.464 0-102.4 45.944-102.4 102.4a102.08 102.08 0 0 0 30.296 72.64l-142.52 575.896h-15.2a101.96 101.96 0 0 0-91.2 55.832l-50.704 99.312c-11.6 22.704 4.96 49.656 30.4 49.656h682.656c25.312 0 41.88-26.704 30.536-49.4z m-243.48-219.68l-77.008-68.456 49.24-43.768 27.768 112.216z m-30.424 64.28h-195.92L512.00648 731.336l97.96 87.072zM512.00648 135.744a34.176 34.176 0 0 1 34.136 34.136A34.176 34.176 0 0 1 512.00648 204.016a34.176 34.176 0 0 1-34.136-34.136A34.176 34.176 0 0 1 512.00648 135.744z m-9.04 136.112c2.984 0.264 6 0.424 9.04 0.424 3.04 0 6.056-0.16 9.04-0.424l33.888 136.96H469.07848l33.888-136.96z m-50.784 205.224h119.648l22.264 89.952L512.00648 640l-82.08-72.96 22.256-89.952z m-40.784 164.824l49.232 43.76-77.008 68.456 27.776-112.216z m-184.968 313.04l25.36-49.656a33.984 33.984 0 0 1 30.4-18.616h460.688c13.016 0 24.712 7.232 30.528 18.872l24.704 49.4h-571.68z m777.52-927.144a513.248 513.248 0 0 1 0 284.152 34.128 34.128 0 1 1-65.576-18.96 444.944 444.944 0 0 0 0-246.224 34.136 34.136 0 0 1 65.576-18.96zM86.49448 43.848a444.848 444.848 0 0 0 0 252.056 34.128 34.128 0 1 1-65.44 19.424 513.104 513.104 0 0 1 0-290.896 34.128 34.128 0 1 1 65.44 19.416z m784.616 16.28a376.104 376.104 0 0 1 0 219.496 34.136 34.136 0 0 1-65.28-19.992 307.792 307.792 0 0 0 0-179.52 34.136 34.136 0 0 1 65.28-19.984zM219.06248 77.304a307.736 307.736 0 0 0 0 185.152 34.136 34.136 0 0 1-65.08 20.616 375.96 375.96 0 0 1 0-226.384 34.128 34.128 0 1 1 65.08 20.616z m518.792 14.528a239.128 239.128 0 0 1 0 156.088 34.136 34.136 0 0 1-64.504-22.344 170.864 170.864 0 0 0 0-111.392 34.136 34.136 0 0 1 64.504-22.352z m-386.264 19.76a170.76 170.76 0 0 0 0 116.56 34.128 34.128 0 1 1-64.136 23.384 239.008 239.008 0 0 1 0-163.32 34.128 34.128 0 1 1 64.136 23.384z" fill="#20A0FF" /></svg>